<svg
  width="34"
  height="34"
  viewBox="0 0 34 34"
  fill="none"
  xmlns="http://www.w3.org/2000/svg"
>
  <path
    d="M17 34C26.3888 34 34 26.3888 34 17C34 7.61116 26.3888 0 17 0C7.61116 0 0 7.61116 0 17C0 26.3888 7.61116 34 17 34Z"
    fill="#00BAF2"
  />
  <path
    d="M17 22.6664C21.3815 22.6664 24.9333 19.1146 24.9333 14.7331C24.9333 10.3516 21.3815 6.79977 17 6.79977C12.6185 6.79977 9.06667 10.3516 9.06667 14.7331C9.06667 19.1146 12.6185 22.6664 17 22.6664Z"
    fill="white"
  />
  <path
    fill-rule="evenodd"
    clip-rule="evenodd"
    d="M4.07898 28.048C6.58399 23.4894 11.4312 20.3999 16.9999 20.3999C22.5687 20.3999 27.4159 23.4894 29.9209 28.048C26.8029 31.691 22.1711 33.9999 16.9999 33.9999C11.8288 33.9999 7.19693 31.691 4.07898 28.048Z"
    fill="white"
  />
</svg>
